<?xml version="1.0" encoding="UTF-8" standalone="no"?>
<svg
   xmlns:dc="http://purl.org/dc/elements/1.1/"
   xmlns:cc="http://creativecommons.org/ns#"
   xmlns:rdf="http://www.w3.org/1999/02/22-rdf-syntax-ns#"
   xmlns:svg="http://www.w3.org/2000/svg"
   xmlns="http://www.w3.org/2000/svg"
   xmlns:sodipodi="http://sodipodi.sourceforge.net/DTD/sodipodi-0.dtd"
   xmlns:inkscape="http://www.inkscape.org/namespaces/inkscape"
   width="1012.982666pt"
   height="429.14682pt"
   viewBox="0 0 1012.982666 429.14682"
   version="1.1"
   id="svg17"
   sodipodi:docname="header-logo.svg"
   inkscape:version="0.92.2 5c3e80d, 2017-08-06">
  <metadata
     id="metadata23">
    <rdf:RDF>
      <cc:Work
         rdf:about="">
        <dc:format>image/svg+xml</dc:format>
        <dc:type
           rdf:resource="http://purl.org/dc/dcmitype/StillImage" />
      </cc:Work>
    </rdf:RDF>
  </metadata>
  <defs
     id="defs21" />
  <sodipodi:namedview
     pagecolor="#ffffff"
     bordercolor="#666666"
     borderopacity="1"
     objecttolerance="10"
     gridtolerance="10"
     guidetolerance="10"
     inkscape:pageopacity="0"
     inkscape:pageshadow="2"
     inkscape:window-width="1366"
     inkscape:window-height="703"
     id="namedview19"
     showgrid="false"
     inkscape:zoom="0.28282814"
     inkscape:cx="675.32178"
     inkscape:cy="286.09788"
     inkscape:window-x="0"
     inkscape:window-y="23"
     inkscape:window-maximized="1"
     inkscape:current-layer="svg17" />
  <path
     inkscape:connector-curvature="0"
     id="path2"
     d="M 88.074219,0 58.023438,56.535156 H 80.933594 L 81.828125,278.50781 40.167969,238.63672 c -5.109375,-4.66016 -7.058594,-10.98438 -6.84375,-18.44922 l 0.597656,-21.42188 4.460937,-0.29687 c -0.777343,-7.02734 2.128907,-9.00781 8.925782,-5.65625 l 2.382812,-3.27344 c -4.4375,-6.64844 -1.121094,-8.05859 4.761719,-7.73437 l 0.59375,-4.76172 c -8.308594,-3.45313 -4.324219,-6.64453 0.296875,-9.82031 l -0.296875,-3.27344 c -5.007813,-0.13281 -10.394531,0.0156 -4.761719,-8.03125 l -1.488281,-2.67969 c -8.515625,4.03125 -9.753906,1.22266 -8.46875,-6.51172 l -3.433594,-1.82031 c -4.914062,7.58203 -7.882812,7.625 -10.269531,-0.78516 l -3.714844,0.48828 c -1.367187,4.70313 -2.433594,10.00782 -9.519531,3.27344 l -3.273437,2.08203 c 1.5,5.44532 2.871093,10.78907 -6.320313,7.73828 l -1.714844,2.71094 C 6.234375,166.22266 8.078125,170.19141 0,169.60547 v 4.16406 c 9.007812,3.94922 6.347656,6.98047 1.1875,9.82031 l 2.085938,2.97266 c 11.910156,-2.28516 7.292968,3.69531 6.546874,7.73828 l 3.867188,2.37891 c 5.390625,-5.1211 6.683594,-3.33203 5.949219,1.78906 l -0.890625,26.48047 c 0.21875,10.14844 4.96875,18.21875 11.902344,25.29297 l 44.335937,41.35937 c 4.679687,4.98438 7.222656,10.22266 7.140625,15.76953 l -0.0625,12.05078 c -3.582031,0.72657 -7.039062,1.84766 -10.363281,3.38282 -6.246094,2.86718 -11.699219,6.8125 -16.347657,11.83984 -4.652343,4.98047 -8.316406,10.82813 -10.996093,17.54688 -2.675781,6.67187 -4.015625,13.83593 -4.015625,21.49609 0,5.12109 0.609375,10.05078 1.832031,14.79687 1.222656,4.69922 2.9375,9.11329 5.144531,13.25 2.207032,4.08594 4.863282,7.82032 7.964844,11.20313 3.144531,3.38281 6.621094,6.27344 10.429688,8.66797 3.851562,2.39844 7.984374,4.2539 12.402343,5.5664 4.414063,1.31641 9.042969,1.97657 13.882813,1.97657 5.730468,0 11.062496,-0.82422 15.996096,-2.46875 4.98047,-1.64453 9.4414,-3.89844 13.39062,-6.76563 3.99219,-2.86328 7.39844,-6.24609 10.21875,-10.14844 2.81641,-3.94531 4.95313,-8.21875 6.41016,-12.82421 l -22.69141,-6.34375 c -0.84375,2.11328 -2.01953,4.16015 -3.52343,6.13281 -1.5,1.92578 -3.26563,3.64062 -5.28516,5.14453 -1.97266,1.50391 -4.17969,2.72266 -6.625001,3.66406 -2.441407,0.89063 -5.074219,1.33985 -7.890625,1.33985 -4.042969,0 -7.753906,-0.8711 -11.136719,-2.60938 -3.382813,-1.78516 -6.292969,-4.17969 -8.738281,-7.1875 -2.441406,-3.00781 -4.367188,-6.50781 -5.777344,-10.5 -1.363281,-4.03906 -2.042969,-8.33984 -2.042969,-12.89453 0,-4.51172 0.703125,-8.76172 2.113281,-12.75781 1.410157,-4.03907 3.335938,-7.5625 5.78125,-10.57032 2.488282,-3.05468 5.421876,-5.44921 8.804688,-7.1875 3.382812,-1.78515 7.050781,-2.67968 10.996094,-2.67968 2.675781,0 5.238281,0.35547 7.679687,1.05859 2.445309,0.66016 4.722659,1.78516 6.835939,3.38281 2.11328,1.55078 4.48828,4.20313 7.11719,7.96485 h 21.77734 v -23.82032 h -15.78516 c -4.74609,-4.22656 -9.09375,-7.04687 -13.03906,-8.45703 -3.07812,-1.13672 -6.718749,-1.82422 -10.910155,-2.07422 l 0.4375,-70.08984 c -0.136719,-1.5 1.0625,-3.74219 5.949215,-8.03516 l 46.41797,-43.74218 c 3.31641,-4.23828 7.14844,-6.92578 8.33203,-17.55469 l 0.29688,-21.71875 c 1.08984,-15.98828 8.46094,-6.15625 14.28515,-2.67969 l 5.94922,-3.57031 c -3.27343,-9.49219 -5.98437,-18.65625 11.60547,-16.07031 l 2.08203,-6.84375 c -8.76953,-5.39453 -12.9375,-11.4961 0,-20.23047 l -1.78515,-6.25 c -12.8086,1.39062 -16.71485,-3.691408 -11.00782,-15.769532 l -5.65625,-4.164063 c -9.59375,8.390625 -16.96875,9.972656 -18.74218,-5.65625 l -7.14453,-0.59375 c -2.46875,12.589844 -7.58985,17.746094 -18.44922,6.84375 l -5.94922,3.867187 c 9.0625,16.277348 -1.875,15.894528 -12.49609,15.769528 l -1.48829,5.95313 c 14.54297,7.86328 12.34766,13.98047 0,19.04297 l 1.48829,6.84375 c 22.70312,-1.22657 13.76953,8.55078 12.19921,15.76953 l 5.35547,5.05859 c 13.47266,-10.83203 16.24219,-5.62109 16.36719,3.57031 l 0.008,13.92188 c 0.3711,4.64453 -1.83984,10.85547 -5.96094,14.94141 l -41.48437,40.24218 0.125,-170.867184 22.61328,0.296875 z m 60.996091,98.679688 c 10.94531,-0.167969 19.97656,8.535152 20.20313,19.484372 l 0.004,0.41016 c 0,10.94922 -8.84765,19.83984 -19.79687,19.89453 -10.94922,0.0586 -19.88281,-8.74219 -19.9961,-19.6875 -0.11328,-10.94922 8.64063,-19.933594 19.58594,-20.101562 z M 26.046875,163.98828 c 5.042969,-0.0781 9.203125,3.95703 9.304687,9.03516 l 0.0039,0.1875 c 0,5.07812 -4.074219,9.19922 -9.121094,9.22656 -5.042969,0.0273 -9.160156,-4.05469 -9.214844,-9.12891 C 16.96875,168.23047 21,164.06641 26.046875,163.98828 Z M 201.64844,318.4375 c -4.83985,0 -9.46485,0.65625 -13.88282,1.97266 -4.41796,1.3164 -8.55078,3.17187 -12.40234,5.5664 -3.80469,2.39453 -7.28125,5.28516 -10.42969,8.66797 -3.10156,3.33594 -5.7539,7.07031 -7.96484,11.20703 -2.20703,4.08594 -3.92188,8.5 -5.14453,13.2461 -1.22266,4.69921 -1.83203,9.60937 -1.83203,14.73046 0,5.1211 0.60937,10.02735 1.83203,14.72657 1.22265,4.69922 2.9375,9.11718 5.14453,13.25 2.21094,4.08593 4.86328,7.82031 7.96484,11.20312 3.14844,3.33594 6.625,6.20313 10.42969,8.59766 3.85156,2.39844 7.98438,4.2539 12.40234,5.5664 4.41797,1.31641 9.04297,1.97657 13.88282,1.97657 4.83984,0 9.46484,-0.66016 13.88281,-1.97657 4.46484,-1.3125 8.59766,-3.16796 12.40234,-5.5664 3.85157,-2.39453 7.32813,-5.26172 10.42969,-8.59766 3.14844,-3.38281 5.82813,-7.11719 8.03516,-11.20312 2.2539,-4.13282 3.99218,-8.55078 5.21484,-13.25 1.21875,-4.7461 1.83203,-9.65235 1.83203,-14.72657 0,-5.12109 -0.61328,-10.03125 -1.83203,-14.73046 -1.22266,-4.7461 -2.96094,-9.16016 -5.21484,-13.2461 -2.20703,-4.13672 -4.88672,-7.87109 -8.03516,-11.20703 -3.10156,-3.38281 -6.57812,-6.27344 -10.42969,-8.66797 -3.80468,-2.39453 -7.9375,-4.25 -12.40234,-5.5664 -4.41797,-1.31641 -9.04297,-1.97266 -13.88281,-1.97266 z m 61.30859,1.97266 v 19.3789 h 9.9375 v 68.14453 h -9.9375 v 19.3086 H 303.125 v -19.3086 h -7.96094 v -59.33593 l 32.5586,77.3789 h 19.80078 l 31.99218,-79.49219 v 61.44922 h -7.32812 v 19.3086 h 39.95703 v -19.3086 h -9.79297 v -68.14453 h 9.9375 v -19.3789 h -44.60937 l -29.2461,77.09375 -31.5,-77.09375 z m 165.18359,0 v 19.3789 h 11.06641 v 68.14453 h -11.06641 v 19.3086 h 44.25782 v -19.3086 h -9.79688 v -20.36328 h 14.8711 c 6.48437,0 12.09765,-0.91797 16.84375,-2.75 4.74609,-1.8789 8.66796,-4.41797 11.76953,-7.60937 3.09765,-3.19532 5.3789,-6.95313 6.83593,-11.27735 1.5,-4.36718 2.25391,-9.04297 2.25391,-14.02343 0,-4.13282 -0.94141,-8.10157 -2.82031,-11.91016 -1.87891,-3.80469 -4.48438,-7.16406 -7.82031,-10.07813 -3.33594,-2.91015 -7.3086,-5.21484 -11.91016,-6.90625 -4.60547,-1.73828 -9.65625,-2.60546 -15.15234,-2.60546 z m 94.29297,0 v 19.3789 h 9.65235 v 42.84766 c 0,7.1875 1.08203,13.625 3.24218,19.30859 2.16407,5.6836 5.09766,10.52344 8.8125,14.51563 3.75782,3.94922 8.14844,6.97656 13.17579,9.09375 5.02734,2.0664 10.42968,3.09765 16.20703,3.09765 5.82812,0 11.27734,-1.05468 16.35156,-3.16797 5.12109,-2.11718 9.55859,-5.19531 13.32031,-9.23437 3.80469,-4.03906 6.78906,-8.97266 8.94922,-14.79688 2.16016,-5.875 3.23828,-12.57031 3.23828,-20.08593 v -41.57813 h 8.53125 v -19.3789 h -42.84765 v 19.3789 h 11.34375 v 44.32813 c 0,4.32031 -0.44532,7.91406 -1.33985,10.78125 -0.84375,2.86718 -2.08984,5.16797 -3.73437,6.90625 -1.59766,1.6914 -3.54688,2.89062 -5.84766,3.59375 -2.25781,0.70312 -4.76953,1.05468 -7.53906,1.05468 -2.67969,0 -5.14453,-0.39843 -7.40235,-1.19531 -2.2539,-0.84375 -4.20312,-2.16015 -5.84765,-3.94531 -1.64453,-1.78516 -2.9375,-4.08984 -3.875,-6.90625 -0.89453,-2.82031 -1.33985,-6.25 -1.33985,-10.28906 v -44.32813 h 9.79688 v -19.3789 z m 107.75,0 v 32.48828 h 22.97266 v -13.8125 H 666.125 v 68.84765 h -11.06641 v 19.3086 h 45.73828 v -19.3086 H 689.51953 V 339.08594 H 704.25 v 13.8125 h 23.11328 v -32.48828 z m 106.6211,0 v 19.30859 h 11.0664 v 68.21484 h -11.0664 v 19.3086 h 45.73828 v -19.3086 h -11.27735 v -68.21484 h 11.27735 v -19.30859 z m 61.875,0 v 19.3789 h 8.66797 v 68.14453 h -8.8086 v 19.3086 h 40.52344 v -19.3086 h -8.95313 v -49.75 l 44.46875,69.0586 h 23.39454 v -87.45313 h 8.66796 v -19.3789 h -40.58984 v 19.3789 h 9.08984 v 50.59766 l -44.18359,-69.97656 z m 149.82031,0 -29.10156,87.52343 h -7.96485 v 19.3086 h 40.51953 v -19.3086 h -11.27343 l 4.79297,-15.36328 h 32.83984 l 4.78906,15.36328 h -10.64062 v 19.3086 h 40.52346 v -19.3086 h -7.7539 l -28.46878,-87.52343 z m -485.89844,19.3789 h 9.65625 c 5.73047,0 10.07813,1.29297 13.03906,3.875 2.95704,2.58594 4.4375,6.15625 4.4375,10.71094 0,4.88672 -1.57421,8.45703 -4.72265,10.71484 -3.14844,2.25391 -7.39844,3.38282 -12.75391,3.38282 h -9.65625 z m 499.14844,0 10.85156,34.74219 h -21.5625 z m -760.10156,0.70313 c 4.03906,0 7.75,0.89453 11.13281,2.67968 3.38281,1.73829 6.29687,4.13282 8.74219,7.1875 2.48828,3.00782 4.41406,6.53125 5.77734,10.57032 1.36328,4.04297 2.04297,8.33984 2.04297,12.89843 0,4.50782 -0.67969,8.78516 -2.04297,12.82422 -1.31641,3.99219 -3.19531,7.51563 -5.63672,10.57032 -2.44531,3.00781 -5.38281,5.40234 -8.8125,7.1875 -3.38281,1.73828 -7.11719,2.60937 -11.20312,2.60937 -4.03907,0 -7.75,-0.87109 -11.13282,-2.60937 -3.38281,-1.78516 -6.29687,-4.17969 -8.74218,-7.1875 -2.44141,-3.05469 -4.36719,-6.57813 -5.77735,-10.57032 -1.36328,-4.03906 -2.04297,-8.3164 -2.04297,-12.82422 0,-4.55859 0.67969,-8.85546 2.04297,-12.89843 1.41016,-4.03907 3.33594,-7.5625 5.77735,-10.57032 2.44531,-3.05468 5.35937,-5.44921 8.74218,-7.1875 3.38282,-1.78515 7.09375,-2.67968 11.13282,-2.67968 z m 0,0"
     style="fill:#ffffff;fill-opacity:1;fill-rule:evenodd;stroke:none" />
  <path
     inkscape:connector-curvature="0"
     id="path4"
     d="m 178.92969,238.45703 c 0,-3.84375 -0.69922,-6.72266 -2.09375,-8.64062 -1.39844,-1.91407 -2.9375,-3.38282 -4.625,-4.40625 -1.67969,-1.03125 -3.52344,-1.81641 -5.53125,-2.35938 -2,-0.55078 -4.00782,-0.82812 -6.01563,-0.82812 -3.3125,0 -6.21484,0.38671 -8.70312,1.15625 -2.48047,0.76171 -4.53907,1.79687 -6.17188,3.10937 -1.63672,1.30469 -2.87109,2.82813 -3.70312,4.57813 -0.83594,1.74218 -1.25,3.57421 -1.25,5.5 0,2.875 0.50781,5.19921 1.53125,6.96875 1.03125,1.76171 2.33203,3.17968 3.90625,4.25 1.57031,1.0625 3.30468,1.90234 5.20312,2.51562 1.89453,0.61719 3.71875,1.22656 5.46875,1.82813 l 13.20313,4.32812 c 3.96875,1.26172 7.46875,2.69922 10.5,4.3125 3.03906,1.61719 5.58203,3.52734 7.625,5.73438 2.05078,2.19921 3.60937,4.74218 4.67187,7.625 1.07031,2.875 1.60938,6.21093 1.60938,10 0,4.09375 -0.83985,7.88671 -2.51563,11.375 -1.67969,3.49218 -4.02344,6.52734 -7.03125,9.10937 -3.01172,2.57422 -6.60156,4.58984 -10.76562,6.04688 -4.16797,1.45703 -8.73438,2.1875 -13.70313,2.1875 -5.10547,0 -9.46875,-0.57813 -13.09375,-1.73438 -3.61719,-1.15625 -6.65625,-2.70312 -9.125,-4.64062 -2.46094,-1.9375 -4.43359,-4.14844 -5.92187,-6.64063 -1.48047,-2.48828 -2.63672,-5.03906 -3.46875,-7.65625 h -4.96875 v -11.25 h 16.48437 c 0,4.83594 0.50781,8.25781 1.53125,10.26563 1.03125,2.01171 2.46094,3.68359 4.29688,5.01562 1.83203,1.32422 4.01562,2.32422 6.54687,3 2.53125,0.67969 5.32031,1.01563 8.375,1.01563 2.95703,0 5.625,-0.34766 8,-1.04688 2.38281,-0.69531 4.41406,-1.70703 6.09375,-3.03125 1.67578,-1.33203 2.96094,-2.94531 3.85938,-4.84375 0.89453,-1.90625 1.34375,-4.05469 1.34375,-6.45312 0,-2.66407 -0.5586,-4.92188 -1.67188,-6.76563 -1.11719,-1.85156 -2.54687,-3.4375 -4.29687,-4.75 -1.74219,-1.3125 -3.64844,-2.37891 -5.71875,-3.20312 -2.0625,-0.83204 -4.0586,-1.55079 -5.98438,-2.15625 l -14.32812,-4.0625 c -3.13672,-0.95704 -6,-2.17579 -8.59375,-3.65625 -2.59375,-1.48829 -4.82032,-3.30079 -6.67188,-5.4375 -1.85547,-2.13282 -3.28906,-4.62891 -4.29687,-7.48438 -1,-2.86328 -1.5,-6.17187 -1.5,-9.92187 0,-3.78907 0.73828,-7.34375 2.21875,-10.65625 1.48828,-3.32032 3.67187,-6.22266 6.54687,-8.70313 2.875,-2.48828 6.39453,-4.44141 10.5625,-5.85937 4.16406,-1.41407 8.92969,-2.125 14.29688,-2.125 3.53906,0 6.80078,0.41796 9.78125,1.25 2.98828,0.82421 5.6914,1.99218 8.10937,3.5 2.42578,1.5 4.56641,3.30859 6.42188,5.42187 1.85156,2.11719 3.41015,4.4375 4.67187,6.96875 h 4.90625 v 11.25 z m 0,0"
     style="fill:#ffffff;fill-opacity:1;fill-rule:nonzero;stroke:none" />
  <path
     inkscape:connector-curvature="0"
     id="path6"
     d="m 206.53125,211.50391 h 71.04687 v 28.0625 h -13.40625 v -16.75 h -35.39062 v 31.73437 h 29.76562 v 11.25 h -29.76562 v 33.64063 h 35.39062 v -16.75 h 13.40625 v 28 h -71.04687 v -11.25 h 9.42187 v -76.625 h -9.42187 z m 0,0"
     style="fill:#ffffff;fill-opacity:1;fill-rule:nonzero;stroke:none" />
  <path
     inkscape:connector-curvature="0"
     id="path8"
     d="m 289.93359,299.44141 h 9.42188 v -75.4375 h -9.42188 v -12.5 h 31.40625 l 31.46875,85.64062 31.85938,-85.64062 h 29.78125 v 12.5 h -9.35938 v 75.4375 h 9.35938 v 11.25 h -32.20313 v -11.25 h 10.60938 v -76.17188 l -34.6875,87.42188 h -11.10938 l -35.14062,-87.60938 v 76.35938 h 10.20312 v 11.25 h -32.1875 z m 0,0"
     style="fill:#ffffff;fill-opacity:1;fill-rule:nonzero;stroke:none" />
  <path
     inkscape:connector-curvature="0"
     id="path10"
     d="m 489.96484,299.44141 h 8.25 l -7.85937,-22.51563 h -38.14063 l -7.65625,22.51563 h 10.20313 v 11.25 h -32.1875 v -11.25 h 8.64062 l 30.875,-87.9375 h 19.29688 l 30.82812,87.9375 h 9.9375 v 11.25 h -32.1875 z m -34.01562,-33.375 h 30.60937 l -15.4375,-44.35938 z m 0,0"
     style="fill:#ffffff;fill-opacity:1;fill-rule:nonzero;stroke:none" />
  <path
     inkscape:connector-curvature="0"
     id="path12"
     d="m 592.75781,211.50391 h 32.1875 v 11.3125 h -8.4375 v 87.875 h -16.75 l -46.125,-82.25 v 71 h 10.20313 v 11.25 h -32.1875 v -11.25 h 9.15625 v -76.625 h -9.42188 v -11.45313 h 26.6875 l 45.28125,81.46875 0.53125,-3.14062 v -66.875 h -11.125 z m 0,0"
     style="fill:#ffffff;fill-opacity:1;fill-rule:nonzero;stroke:none" />
  <path
     inkscape:connector-curvature="0"
     id="path14"
     d="m 694.61328,299.44141 h 8.25 l -7.85937,-22.51563 h -38.14063 l -7.65625,22.51563 h 10.20313 v 11.25 h -32.1875 v -11.25 h 8.64062 l 30.875,-87.9375 h 19.29688 l 30.82812,87.9375 h 9.9375 v 11.25 h -32.1875 z m -34.01562,-33.375 h 30.60937 l -15.4375,-44.35938 z m 0,0"
     style="fill:#ffffff;fill-opacity:1;fill-rule:nonzero;stroke:none" />
</svg>
