<?xml version="1.0" encoding="UTF-8"?>
<svg xmlns="http://www.w3.org/2000/svg" xmlns:xlink="http://www.w3.org/1999/xlink" width="1012.982666pt" height="429.14682pt" viewBox="0 0 1012.982666 429.14682" version="1.1">
<g id="surface1">
<path style=" stroke:none;fill-rule:evenodd;fill:rgb(47.842407%,38.038635%,66.273499%);fill-opacity:1;" d="M 88.074219 0 L 58.023438 56.535156 L 80.933594 56.535156 L 81.828125 278.507812 L 40.167969 238.636719 C 35.058594 233.976562 33.109375 227.652344 33.324219 220.1875 L 33.921875 198.765625 L 38.382812 198.46875 C 37.605469 191.441406 40.511719 189.460938 47.308594 192.8125 L 49.691406 189.539062 C 45.253906 182.890625 48.570312 181.480469 54.453125 181.804688 L 55.046875 177.042969 C 46.738281 173.589844 50.722656 170.398438 55.34375 167.222656 L 55.046875 163.949219 C 50.039062 163.816406 44.652344 163.964844 50.285156 155.917969 L 48.796875 153.238281 C 40.28125 157.269531 39.042969 154.460938 40.328125 146.726562 L 36.894531 144.90625 C 31.980469 152.488281 29.011719 152.53125 26.625 144.121094 L 22.910156 144.609375 C 21.542969 149.3125 20.476562 154.617188 13.390625 147.882812 L 10.117188 149.964844 C 11.617188 155.410156 12.988281 160.753906 3.796875 157.703125 L 2.082031 160.414062 C 6.234375 166.222656 8.078125 170.191406 0 169.605469 L 0 173.769531 C 9.007812 177.71875 6.347656 180.75 1.1875 183.589844 L 3.273438 186.5625 C 15.183594 184.277344 10.566406 190.257812 9.820312 194.300781 L 13.6875 196.679688 C 19.078125 191.558594 20.371094 193.347656 19.636719 198.46875 L 18.746094 224.949219 C 18.964844 235.097656 23.714844 243.167969 30.648438 250.242188 L 74.984375 291.601562 C 79.664062 296.585938 82.207031 301.824219 82.125 307.371094 L 82.0625 319.421875 C 78.480469 320.148438 75.023438 321.269531 71.699219 322.804688 C 65.453125 325.671875 60 329.617188 55.351562 334.644531 C 50.699219 339.625 47.035156 345.472656 44.355469 352.191406 C 41.679688 358.863281 40.339844 366.027344 40.339844 373.6875 C 40.339844 378.808594 40.949219 383.738281 42.171875 388.484375 C 43.394531 393.183594 45.109375 397.597656 47.316406 401.734375 C 49.523438 405.820312 52.179688 409.554688 55.28125 412.9375 C 58.425781 416.320312 61.902344 419.210938 65.710938 421.605469 C 69.5625 424.003906 73.695312 425.859375 78.113281 427.171875 C 82.527344 428.488281 87.15625 429.148438 91.996094 429.148438 C 97.726562 429.148438 103.058594 428.324219 107.992188 426.679688 C 112.972656 425.035156 117.433594 422.78125 121.382812 419.914062 C 125.375 417.050781 128.78125 413.667969 131.601562 409.765625 C 134.417969 405.820312 136.554688 401.546875 138.011719 396.941406 L 115.320312 390.597656 C 114.476562 392.710938 113.300781 394.757812 111.796875 396.730469 C 110.296875 398.65625 108.53125 400.371094 106.511719 401.875 C 104.539062 403.378906 102.332031 404.597656 99.886719 405.539062 C 97.445312 406.429688 94.8125 406.878906 91.996094 406.878906 C 87.953125 406.878906 84.242188 406.007812 80.859375 404.269531 C 77.476562 402.484375 74.566406 400.089844 72.121094 397.082031 C 69.679688 394.074219 67.753906 390.574219 66.34375 386.582031 C 64.980469 382.542969 64.300781 378.242188 64.300781 373.6875 C 64.300781 369.175781 65.003906 364.925781 66.414062 360.929688 C 67.824219 356.890625 69.75 353.367188 72.195312 350.359375 C 74.683594 347.304688 77.617188 344.910156 81 343.171875 C 84.382812 341.386719 88.050781 340.492188 91.996094 340.492188 C 94.671875 340.492188 97.234375 340.847656 99.675781 341.550781 C 102.121094 342.210938 104.398438 343.335938 106.511719 344.933594 C 108.625 346.484375 111 349.136719 113.628906 352.898438 L 135.40625 352.898438 L 135.40625 329.078125 L 119.621094 329.078125 C 114.875 324.851562 110.527344 322.03125 106.582031 320.621094 C 103.503906 319.484375 99.863281 318.796875 95.671875 318.546875 L 96.109375 248.457031 C 95.972656 246.957031 97.171875 244.714844 102.058594 240.421875 L 148.476562 196.679688 C 151.792969 192.441406 155.625 189.753906 156.808594 179.125 L 157.105469 157.40625 C 158.195312 141.417969 165.566406 151.25 171.390625 154.726562 L 177.339844 151.15625 C 174.066406 141.664062 171.355469 132.5 188.945312 135.085938 L 191.027344 128.242188 C 182.257812 122.847656 178.089844 116.746094 191.027344 108.011719 L 189.242188 101.761719 C 176.433594 103.152344 172.527344 98.070312 178.234375 85.992188 L 172.578125 81.828125 C 162.984375 90.21875 155.609375 91.800781 153.835938 76.171875 L 146.691406 75.578125 C 144.222656 88.167969 139.101562 93.324219 128.242188 82.421875 L 122.292969 86.289062 C 131.355469 102.566406 120.417969 102.183594 109.796875 102.058594 L 108.308594 108.011719 C 122.851562 115.875 120.65625 121.992188 108.308594 127.054688 L 109.796875 133.898438 C 132.5 132.671875 123.566406 142.449219 121.996094 149.667969 L 127.351562 154.726562 C 140.824219 143.894531 143.59375 149.105469 143.71875 158.296875 L 143.726562 172.21875 C 144.097656 176.863281 141.886719 183.074219 137.765625 187.160156 L 96.28125 227.402344 L 96.40625 56.535156 L 119.019531 56.832031 Z M 149.070312 98.679688 C 160.015625 98.511719 169.046875 107.214844 169.273438 118.164062 L 169.277344 118.574219 C 169.277344 129.523438 160.429688 138.414062 149.480469 138.46875 C 138.53125 138.527344 129.597656 129.726562 129.484375 118.78125 C 129.371094 107.832031 138.125 98.847656 149.070312 98.679688 Z M 26.046875 163.988281 C 31.089844 163.910156 35.25 167.945312 35.351562 173.023438 L 35.355469 173.210938 C 35.355469 178.289062 31.28125 182.410156 26.234375 182.4375 C 21.191406 182.464844 17.074219 178.382812 17.019531 173.308594 C 16.96875 168.230469 21 164.066406 26.046875 163.988281 Z M 201.648438 318.4375 C 196.808594 318.4375 192.183594 319.09375 187.765625 320.410156 C 183.347656 321.726562 179.214844 323.582031 175.363281 325.976562 C 171.558594 328.371094 168.082031 331.261719 164.933594 334.644531 C 161.832031 337.980469 159.179688 341.714844 156.96875 345.851562 C 154.761719 349.9375 153.046875 354.351562 151.824219 359.097656 C 150.601562 363.796875 149.992188 368.707031 149.992188 373.828125 C 149.992188 378.949219 150.601562 383.855469 151.824219 388.554688 C 153.046875 393.253906 154.761719 397.671875 156.96875 401.804688 C 159.179688 405.890625 161.832031 409.625 164.933594 413.007812 C 168.082031 416.34375 171.558594 419.210938 175.363281 421.605469 C 179.214844 424.003906 183.347656 425.859375 187.765625 427.171875 C 192.183594 428.488281 196.808594 429.148438 201.648438 429.148438 C 206.488281 429.148438 211.113281 428.488281 215.53125 427.171875 C 219.996094 425.859375 224.128906 424.003906 227.933594 421.605469 C 231.785156 419.210938 235.261719 416.34375 238.363281 413.007812 C 241.511719 409.625 244.191406 405.890625 246.398438 401.804688 C 248.652344 397.671875 250.390625 393.253906 251.613281 388.554688 C 252.832031 383.808594 253.445312 378.902344 253.445312 373.828125 C 253.445312 368.707031 252.832031 363.796875 251.613281 359.097656 C 250.390625 354.351562 248.652344 349.9375 246.398438 345.851562 C 244.191406 341.714844 241.511719 337.980469 238.363281 334.644531 C 235.261719 331.261719 231.785156 328.371094 227.933594 325.976562 C 224.128906 323.582031 219.996094 321.726562 215.53125 320.410156 C 211.113281 319.09375 206.488281 318.4375 201.648438 318.4375 Z M 262.957031 320.410156 L 262.957031 339.789062 L 272.894531 339.789062 L 272.894531 407.933594 L 262.957031 407.933594 L 262.957031 427.242188 L 303.125 427.242188 L 303.125 407.933594 L 295.164062 407.933594 L 295.164062 348.597656 L 327.722656 425.976562 L 347.523438 425.976562 L 379.515625 346.484375 L 379.515625 407.933594 L 372.1875 407.933594 L 372.1875 427.242188 L 412.144531 427.242188 L 412.144531 407.933594 L 402.351562 407.933594 L 402.351562 339.789062 L 412.289062 339.789062 L 412.289062 320.410156 L 367.679688 320.410156 L 338.433594 397.503906 L 306.933594 320.410156 Z M 428.140625 320.410156 L 428.140625 339.789062 L 439.207031 339.789062 L 439.207031 407.933594 L 428.140625 407.933594 L 428.140625 427.242188 L 472.398438 427.242188 L 472.398438 407.933594 L 462.601562 407.933594 L 462.601562 387.570312 L 477.472656 387.570312 C 483.957031 387.570312 489.570312 386.652344 494.316406 384.820312 C 499.0625 382.941406 502.984375 380.402344 506.085938 377.210938 C 509.183594 374.015625 511.464844 370.257812 512.921875 365.933594 C 514.421875 361.566406 515.175781 356.890625 515.175781 351.910156 C 515.175781 347.777344 514.234375 343.808594 512.355469 340 C 510.476562 336.195312 507.871094 332.835938 504.535156 329.921875 C 501.199219 327.011719 497.226562 324.707031 492.625 323.015625 C 488.019531 321.277344 482.96875 320.410156 477.472656 320.410156 Z M 522.433594 320.410156 L 522.433594 339.789062 L 532.085938 339.789062 L 532.085938 382.636719 C 532.085938 389.824219 533.167969 396.261719 535.328125 401.945312 C 537.492188 407.628906 540.425781 412.46875 544.140625 416.460938 C 547.898438 420.410156 552.289062 423.4375 557.316406 425.554688 C 562.34375 427.621094 567.746094 428.652344 573.523438 428.652344 C 579.351562 428.652344 584.800781 427.597656 589.875 425.484375 C 594.996094 423.367188 599.433594 420.289062 603.195312 416.25 C 607 412.210938 609.984375 407.277344 612.144531 401.453125 C 614.304688 395.578125 615.382812 388.882812 615.382812 381.367188 L 615.382812 339.789062 L 623.914062 339.789062 L 623.914062 320.410156 L 581.066406 320.410156 L 581.066406 339.789062 L 592.410156 339.789062 L 592.410156 384.117188 C 592.410156 388.4375 591.964844 392.03125 591.070312 394.898438 C 590.226562 397.765625 588.980469 400.066406 587.335938 401.804688 C 585.738281 403.496094 583.789062 404.695312 581.488281 405.398438 C 579.230469 406.101562 576.71875 406.453125 573.949219 406.453125 C 571.269531 406.453125 568.804688 406.054688 566.546875 405.257812 C 564.292969 404.414062 562.34375 403.097656 560.699219 401.3125 C 559.054688 399.527344 557.761719 397.222656 556.824219 394.40625 C 555.929688 391.585938 555.484375 388.15625 555.484375 384.117188 L 555.484375 339.789062 L 565.28125 339.789062 L 565.28125 320.410156 Z M 630.183594 320.410156 L 630.183594 352.898438 L 653.15625 352.898438 L 653.15625 339.085938 L 666.125 339.085938 L 666.125 407.933594 L 655.058594 407.933594 L 655.058594 427.242188 L 700.796875 427.242188 L 700.796875 407.933594 L 689.519531 407.933594 L 689.519531 339.085938 L 704.25 339.085938 L 704.25 352.898438 L 727.363281 352.898438 L 727.363281 320.410156 Z M 736.804688 320.410156 L 736.804688 339.71875 L 747.871094 339.71875 L 747.871094 407.933594 L 736.804688 407.933594 L 736.804688 427.242188 L 782.542969 427.242188 L 782.542969 407.933594 L 771.265625 407.933594 L 771.265625 339.71875 L 782.542969 339.71875 L 782.542969 320.410156 Z M 798.679688 320.410156 L 798.679688 339.789062 L 807.347656 339.789062 L 807.347656 407.933594 L 798.539062 407.933594 L 798.539062 427.242188 L 839.0625 427.242188 L 839.0625 407.933594 L 830.109375 407.933594 L 830.109375 358.183594 L 874.578125 427.242188 L 897.972656 427.242188 L 897.972656 339.789062 L 906.640625 339.789062 L 906.640625 320.410156 L 866.050781 320.410156 L 866.050781 339.789062 L 875.140625 339.789062 L 875.140625 390.386719 L 830.957031 320.410156 Z M 948.5 320.410156 L 919.398438 407.933594 L 911.433594 407.933594 L 911.433594 427.242188 L 951.953125 427.242188 L 951.953125 407.933594 L 940.679688 407.933594 L 945.472656 392.570312 L 978.3125 392.570312 L 983.101562 407.933594 L 972.460938 407.933594 L 972.460938 427.242188 L 1012.984375 427.242188 L 1012.984375 407.933594 L 1005.230469 407.933594 L 976.761719 320.410156 Z M 462.601562 339.789062 L 472.257812 339.789062 C 477.988281 339.789062 482.335938 341.082031 485.296875 343.664062 C 488.253906 346.25 489.734375 349.820312 489.734375 354.375 C 489.734375 359.261719 488.160156 362.832031 485.011719 365.089844 C 481.863281 367.34375 477.613281 368.472656 472.257812 368.472656 L 462.601562 368.472656 Z M 961.75 339.789062 L 972.601562 374.53125 L 951.039062 374.53125 Z M 201.648438 340.492188 C 205.6875 340.492188 209.398438 341.386719 212.78125 343.171875 C 216.164062 344.910156 219.078125 347.304688 221.523438 350.359375 C 224.011719 353.367188 225.9375 356.890625 227.300781 360.929688 C 228.664062 364.972656 229.34375 369.269531 229.34375 373.828125 C 229.34375 378.335938 228.664062 382.613281 227.300781 386.652344 C 225.984375 390.644531 224.105469 394.167969 221.664062 397.222656 C 219.21875 400.230469 216.28125 402.625 212.851562 404.410156 C 209.46875 406.148438 205.734375 407.019531 201.648438 407.019531 C 197.609375 407.019531 193.898438 406.148438 190.515625 404.410156 C 187.132812 402.625 184.21875 400.230469 181.773438 397.222656 C 179.332031 394.167969 177.40625 390.644531 175.996094 386.652344 C 174.632812 382.613281 173.953125 378.335938 173.953125 373.828125 C 173.953125 369.269531 174.632812 364.972656 175.996094 360.929688 C 177.40625 356.890625 179.332031 353.367188 181.773438 350.359375 C 184.21875 347.304688 187.132812 344.910156 190.515625 343.171875 C 193.898438 341.386719 197.609375 340.492188 201.648438 340.492188 Z M 201.648438 340.492188 "/>
<path style=" stroke:none;fill-rule:nonzero;fill:rgb(34.901428%,21.568298%,58.822632%);fill-opacity:1;" d="M 178.929688 238.457031 C 178.929688 234.613281 178.230469 231.734375 176.835938 229.816406 C 175.4375 227.902344 173.898438 226.433594 172.210938 225.410156 C 170.53125 224.378906 168.6875 223.59375 166.679688 223.050781 C 164.679688 222.5 162.671875 222.222656 160.664062 222.222656 C 157.351562 222.222656 154.449219 222.609375 151.960938 223.378906 C 149.480469 224.140625 147.421875 225.175781 145.789062 226.488281 C 144.152344 227.792969 142.917969 229.316406 142.085938 231.066406 C 141.25 232.808594 140.835938 234.640625 140.835938 236.566406 C 140.835938 239.441406 141.34375 241.765625 142.367188 243.535156 C 143.398438 245.296875 144.699219 246.714844 146.273438 247.785156 C 147.84375 248.847656 149.578125 249.6875 151.476562 250.300781 C 153.371094 250.917969 155.195312 251.527344 156.945312 252.128906 L 170.148438 256.457031 C 174.117188 257.71875 177.617188 259.15625 180.648438 260.769531 C 183.6875 262.386719 186.230469 264.296875 188.273438 266.503906 C 190.324219 268.703125 191.882812 271.246094 192.945312 274.128906 C 194.015625 277.003906 194.554688 280.339844 194.554688 284.128906 C 194.554688 288.222656 193.714844 292.015625 192.039062 295.503906 C 190.359375 298.996094 188.015625 302.03125 185.007812 304.613281 C 181.996094 307.1875 178.40625 309.203125 174.242188 310.660156 C 170.074219 312.117188 165.507812 312.847656 160.539062 312.847656 C 155.433594 312.847656 151.070312 312.269531 147.445312 311.113281 C 143.828125 309.957031 140.789062 308.410156 138.320312 306.472656 C 135.859375 304.535156 133.886719 302.324219 132.398438 299.832031 C 130.917969 297.34375 129.761719 294.792969 128.929688 292.175781 L 123.960938 292.175781 L 123.960938 280.925781 L 140.445312 280.925781 C 140.445312 285.761719 140.953125 289.183594 141.976562 291.191406 C 143.007812 293.203125 144.4375 294.875 146.273438 296.207031 C 148.105469 297.53125 150.289062 298.53125 152.820312 299.207031 C 155.351562 299.886719 158.140625 300.222656 161.195312 300.222656 C 164.152344 300.222656 166.820312 299.875 169.195312 299.175781 C 171.578125 298.480469 173.609375 297.46875 175.289062 296.144531 C 176.964844 294.8125 178.25 293.199219 179.148438 291.300781 C 180.042969 289.394531 180.492188 287.246094 180.492188 284.847656 C 180.492188 282.183594 179.933594 279.925781 178.820312 278.082031 C 177.703125 276.230469 176.273438 274.644531 174.523438 273.332031 C 172.78125 272.019531 170.875 270.953125 168.804688 270.128906 C 166.742188 269.296875 164.746094 268.578125 162.820312 267.972656 L 148.492188 263.910156 C 145.355469 262.953125 142.492188 261.734375 139.898438 260.253906 C 137.304688 258.765625 135.078125 256.953125 133.226562 254.816406 C 131.371094 252.683594 129.9375 250.1875 128.929688 247.332031 C 127.929688 244.46875 127.429688 241.160156 127.429688 237.410156 C 127.429688 233.621094 128.167969 230.066406 129.648438 226.753906 C 131.136719 223.433594 133.320312 220.53125 136.195312 218.050781 C 139.070312 215.5625 142.589844 213.609375 146.757812 212.191406 C 150.921875 210.777344 155.6875 210.066406 161.054688 210.066406 C 164.59375 210.066406 167.855469 210.484375 170.835938 211.316406 C 173.824219 212.140625 176.527344 213.308594 178.945312 214.816406 C 181.371094 216.316406 183.511719 218.125 185.367188 220.238281 C 187.21875 222.355469 188.777344 224.675781 190.039062 227.207031 L 194.945312 227.207031 L 194.945312 238.457031 Z M 178.929688 238.457031 "/>
<path style=" stroke:none;fill-rule:nonzero;fill:rgb(34.901428%,21.568298%,58.822632%);fill-opacity:1;" d="M 206.53125 211.503906 L 277.578125 211.503906 L 277.578125 239.566406 L 264.171875 239.566406 L 264.171875 222.816406 L 228.78125 222.816406 L 228.78125 254.550781 L 258.546875 254.550781 L 258.546875 265.800781 L 228.78125 265.800781 L 228.78125 299.441406 L 264.171875 299.441406 L 264.171875 282.691406 L 277.578125 282.691406 L 277.578125 310.691406 L 206.53125 310.691406 L 206.53125 299.441406 L 215.953125 299.441406 L 215.953125 222.816406 L 206.53125 222.816406 Z M 206.53125 211.503906 "/>
<path style=" stroke:none;fill-rule:nonzero;fill:rgb(34.901428%,21.568298%,58.822632%);fill-opacity:1;" d="M 289.933594 299.441406 L 299.355469 299.441406 L 299.355469 224.003906 L 289.933594 224.003906 L 289.933594 211.503906 L 321.339844 211.503906 L 352.808594 297.144531 L 384.667969 211.503906 L 414.449219 211.503906 L 414.449219 224.003906 L 405.089844 224.003906 L 405.089844 299.441406 L 414.449219 299.441406 L 414.449219 310.691406 L 382.246094 310.691406 L 382.246094 299.441406 L 392.855469 299.441406 L 392.855469 223.269531 L 358.167969 310.691406 L 347.058594 310.691406 L 311.917969 223.082031 L 311.917969 299.441406 L 322.121094 299.441406 L 322.121094 310.691406 L 289.933594 310.691406 Z M 289.933594 299.441406 "/>
<path style=" stroke:none;fill-rule:nonzero;fill:rgb(34.901428%,21.568298%,58.822632%);fill-opacity:1;" d="M 489.964844 299.441406 L 498.214844 299.441406 L 490.355469 276.925781 L 452.214844 276.925781 L 444.558594 299.441406 L 454.761719 299.441406 L 454.761719 310.691406 L 422.574219 310.691406 L 422.574219 299.441406 L 431.214844 299.441406 L 462.089844 211.503906 L 481.386719 211.503906 L 512.214844 299.441406 L 522.152344 299.441406 L 522.152344 310.691406 L 489.964844 310.691406 Z M 455.949219 266.066406 L 486.558594 266.066406 L 471.121094 221.707031 Z M 455.949219 266.066406 "/>
<path style=" stroke:none;fill-rule:nonzero;fill:rgb(34.901428%,21.568298%,58.822632%);fill-opacity:1;" d="M 592.757812 211.503906 L 624.945312 211.503906 L 624.945312 222.816406 L 616.507812 222.816406 L 616.507812 310.691406 L 599.757812 310.691406 L 553.632812 228.441406 L 553.632812 299.441406 L 563.835938 299.441406 L 563.835938 310.691406 L 531.648438 310.691406 L 531.648438 299.441406 L 540.804688 299.441406 L 540.804688 222.816406 L 531.382812 222.816406 L 531.382812 211.363281 L 558.070312 211.363281 L 603.351562 292.832031 L 603.882812 289.691406 L 603.882812 222.816406 L 592.757812 222.816406 Z M 592.757812 211.503906 "/>
<path style=" stroke:none;fill-rule:nonzero;fill:rgb(34.901428%,21.568298%,58.822632%);fill-opacity:1;" d="M 694.613281 299.441406 L 702.863281 299.441406 L 695.003906 276.925781 L 656.863281 276.925781 L 649.207031 299.441406 L 659.410156 299.441406 L 659.410156 310.691406 L 627.222656 310.691406 L 627.222656 299.441406 L 635.863281 299.441406 L 666.738281 211.503906 L 686.035156 211.503906 L 716.863281 299.441406 L 726.800781 299.441406 L 726.800781 310.691406 L 694.613281 310.691406 Z M 660.597656 266.066406 L 691.207031 266.066406 L 675.769531 221.707031 Z M 660.597656 266.066406 "/>
</g>
</svg>
